<svg xmlns="http://www.w3.org/2000/svg" viewBox="0 0 800 900"><defs><linearGradient id="b" x1="0" y1="0" x2="1" y2="1"><stop stop-color="#f1e5d2"/><stop offset="1" stop-color="#dcebe7"/></linearGradient><filter id="s"><feDropShadow dx="0" dy="20" stdDeviation="18" flood-opacity=".16"/></filter></defs><rect width="800" height="900" rx="60" fill="url(#b)"/><g filter="url(#s)"><rect x="330" y="136" width="140" height="95" rx="22" fill="#143f38"/><path d="M274 254c0-39 32-71 71-71h110c39 0 71 32 71 71l53 388c8 57-36 108-94 108H315c-58 0-102-51-94-108z" fill="#8ebdb2"/><path d="M267 392c90 36 176 36 266 0M250 530c100 38 200 38 300 0" stroke="#e6f2ef" stroke-width="18" fill="none"/><rect x="302" y="602" width="196" height="67" rx="24" fill="#143f38" opacity=".86"/></g><path d="M597 222c41 28 65 65 73 112" stroke="#c99b48" stroke-width="9" fill="none" stroke-linecap="round"/></svg>
