<svg xmlns="http://www.w3.org/2000/svg" viewBox="0 0 256 256" fill="none">
  <circle cx="128" cy="128" r="108" fill="#FBF9F3" stroke="#E8DBC4" stroke-width="6"/>
  <rect x="86" y="62" width="84" height="132" rx="8" fill="#E2F1E7" stroke="#2E7D5A" stroke-width="6"/>
  <path d="M86 80h84M86 176h84" stroke="#2E7D5A" stroke-width="6"/>
  <path d="M86 68l-8 12M98 68l-8 12M110 68l-8 12M122 68l-8 12M134 68l-8 12M146 68l-8 12M158 68l-8 12M170 68l-8 12" stroke="#2E7D5A" stroke-width="4" stroke-linecap="round"/>
  <path d="M86 188l-8-12M98 188l-8-12M110 188l-8-12M122 188l-8-12M134 188l-8-12M146 188l-8-12M158 188l-8-12M170 188l-8-12" stroke="#2E7D5A" stroke-width="4" stroke-linecap="round"/>
  <path d="M128 98c18 16 28 28 28 38H100c0-10 10-22 28-38Z" fill="#CFE8D7" stroke="#2E7D5A" stroke-width="6" stroke-linejoin="round"/>
  <path d="M116 150h24" stroke="#2E7D5A" stroke-width="6" stroke-linecap="round"/>
</svg>
